<?xml version="1.0" encoding="UTF-8"?>
<svg id="_レイヤー_1" xmlns="http://www.w3.org/2000/svg" width="1024" height="1024" xmlns:serif="http://www.serif.com/" version="1.1" viewBox="0 0 1024 1024">
  <!-- Generator: Adobe Illustrator 29.8.2, SVG Export Plug-In . SVG Version: 2.1.1 Build 3)  -->
  <g>
    <g>
      <g>
        <path d="M132.722,903.34c-3.511,0-6.122.128-8.198.239-1.492.087-2.774.146-3.999.146-1.702,0-3.148-.151-4.443-.28l-.992-.093-.769-.082.023,48.017h20.988c13.643,0,23.938-10.89,23.938-25.32,0-15.427-8.454-22.626-26.55-22.626h.001ZM126.262,945.896v-37.052c1.772-.162,3.428-.267,6.319-.267,8.933,0,14.693,6.775,14.693,17.245,0,13.054-5.597,20.242-15.765,20.242-2.262,0-3.825-.093-5.119-.158l-.128-.011h0Z"/>
        <path d="M264.356,903.445c-1.271.128-2.753.28-4.478.28s-3.16-.151-4.466-.28l-.956-.093-.771-.082v48.017h12.419v-48.017l-.782.082-.967.093h0Z"/>
        <path d="M516.838,903.445c-1.307.128-2.763.28-4.478.28-1.725,0-3.195-.151-4.489-.28l-.967-.093-.771-.082v48.017h12.43v-48.017l-.769.082-.956.093h0Z"/>
        <path d="M407.453,929.098c-.84.141-2.065.356-4.781.356-2.263,0-3.44-.205-4.279-.333-.187-.041-.327-.07-.479-.087l-.78-.117v16.597c-1.189.52-4.384.938-6.506.938-9.515,0-15.66-7.066-15.66-18.004,0-13.922,8.417-20.283,16.266-20.283,5.456,0,9.749,2.169,12.744,6.425l.235.285h1.877l.105-.577c.397-2.233,1.131-4.524,1.854-6.729l.187-.561c0-.018-.525-.297-.525-.297-5.55-2.933-10.331-4.134-16.57-4.134-17.618,0-28.566,10.081-28.566,26.271,0,13.864,10.972,23.192,27.284,23.192,5.224,0,11.38-1.02,18.306-3.004l.513-.146v-19.98l-.817.117c-.139.016-.255.046-.406.063h0v.007Z"/>
        <path d="M649.522,907.019c0-.869.082-1.738.315-2.828l.175-.876-.887.035-2.297.087c-4.419.164-7.603.285-14.761.285-6.973,0-10.203-.121-14.658-.28l-2.822-.093-.863-.035.176.876c.187.938.351,1.854.351,2.828,0,.951-.164,1.836-.351,2.815l-.198.951.967-.11c3.767-.438,8.618-.81,11.346-.863v41.475h12.058v-41.475c2.822.053,7.696.426,10.984.863l.968.128-.187-.968c-.235-1.084-.315-1.959-.315-2.815h-.001Z"/>
        <path d="M758.406,904.035l-.198-.531-.57.075c-.292.041-.572.11-.863.169-.536.1-1.061.221-1.586.221-.536,0-1.038-.121-1.597-.221-.256-.059-.561-.128-.851-.169l-.548-.075-.198.524c-5.538,14.704-15.578,38.626-19.168,46.794l-.456.979h8.15l.151-.513c1.318-4.815,2.753-9.165,4.373-13.316h14.61c1.539,4.203,3.055,8.67,4.489,13.34l.164.49h13.235l-.456-.985c-5.552-11.924-14.098-34.421-18.68-46.781h0ZM752.624,919.152c1.725,4.396,3.346,8.816,4.99,13.463v.023h-10.296c1.702-4.734,3.463-9.165,5.306-13.486h0Z"/>
        <path d="M896.629,950.974c-.128-.823-.21-1.451-.21-2.763,0-1.394.082-2.041.21-2.933l.128-.903-.896.093c-4.793.572-9.515.835-14.424.863v-41.546l-.782.087-1.097.11c-1.143.123-2.484.256-4.14.256-1.713,0-3.147-.139-4.454-.269l-.979-.1-.771-.087v48.017h27.541l-.128-.828h.001Z"/>
      </g>
      <g>
        <path d="M156.101,808.494c0,17.642-11.346,20.103-20.487,20.103l-.059-38.438c1.503-.134,3.871-.134,6.075-.134,7.789,0,14.471,4.518,14.471,18.469h0ZM114.426,876.306h21.118l.071-40.804h6.971c20.336,0,35.028-8.28,35.028-29.198,0-8.063-2.705-13.671-8.417-18.429-4.222-3.527-10.903-5.556-23.73-5.556-6.565,0-13.641.599-19.904.599-4.489,0-8.139-.338-11.137-.599v93.987h0Z"/>
        <path d="M488.084,808.494c0,17.642-11.31,20.103-20.452,20.103v-38.438c1.504-.134,3.778-.134,5.97-.134,7.778,0,14.482,4.518,14.482,18.469h0ZM446.398,876.306h21.234v-40.804h6.926c20.347,0,35.039-8.28,35.039-29.198,0-8.063-2.716-13.671-8.43-18.429-4.233-3.527-10.89-5.556-23.741-5.556-6.553,0-13.643.599-19.893.599-4.466,0-8.15-.338-11.136-.599v93.987h0Z"/>
        <path d="M268.11,826.248c0,29.734-14.307,43.37-30.666,43.37-15.263,0-28.614-10.085-28.614-39.144,0-23.456,10.915-42.282,29.581-42.282,17.573,0,29.699,14.472,29.699,38.055h0ZM186.51,829.257c0,34.102,23.134,48.851,51.901,48.851,30.377,0,52.03-21.985,52.03-48.997,0-32.859-22.738-48.617-51.609-48.617-31.634,0-52.321,21.898-52.321,48.763h-.001Z"/>
        <path d="M303.826,782.318c2.975.273,6.647.599,11.125.599s7.73-.326,10.716-.599v83.827c10.249,0,20.347-.532,30.831-1.773-.244,1.919-.7,3.272-.7,6.109s.456,4.198.7,5.824h-52.671v-93.987h0Z"/>
        <path d="M399.499,823.187c7.334-10.366,14.832-27.531,20.838-40.868,2.041.273,4.092.599,6.272.599,2.192,0,4.233-.326,6.554-.599-6.006,10.214-27.973,52.163-27.973,52.163v41.826h-21.864v-38.957s-24.277-47.271-28.509-55.03c4.08.273,8.173.599,12.267.599s8.057-.326,12.138-.599c6.273,13.479,16.465,34.595,20.277,40.868h0Z"/>
        <path d="M876.119,823.187c7.347-10.366,14.845-27.531,20.837-40.868,2.065.273,4.106.599,6.285.599s4.233-.326,6.542-.599c-6.006,10.214-27.985,52.163-27.985,52.163v41.826h-21.851v-38.957s-24.264-47.271-28.498-55.03c4.081.273,8.187.599,12.268.599,4.104,0,8.045-.326,12.149-.599,6.251,13.479,16.442,34.595,20.254,40.868h0Z"/>
        <path d="M585.168,830.772h-40.532v45.533h-21.736v-93.987c2.974.273,6.645.599,11.136.599s7.592-.326,10.6-.599v37.476c4.642.146,10.669.281,20.382.281s14.937-.135,20.149-.281v-37.476c2.984.273,6.099.599,10.589.599s8.139-.326,11.148-.599v93.987h-21.736v-45.533h-.001Z"/>
        <path d="M701.993,826.248c0,29.734-14.307,43.37-30.666,43.37-15.252,0-28.603-10.085-28.603-39.144,0-23.456,10.89-42.282,29.57-42.282,17.573,0,29.699,14.472,29.699,38.055h0ZM620.406,829.257c0,34.102,23.123,48.851,51.888,48.851,30.364,0,52.029-21.985,52.029-48.997,0-32.859-22.738-48.617-51.632-48.617-31.6,0-52.285,21.898-52.285,48.763h0Z"/>
        <path d="M737.872,782.318c2.041.401,5.107.599,7.172.599,2.028,0,4.081-.198,6.122-.599,19.647,21.665,38.724,43.185,58.792,64.83v-64.83c2.041.401,3.604.599,5.655.599,2.041,0,2.984-.198,5.037-.599v93.987h-12.01c-18.692-22.072-38.351-44.135-59.375-66.201v66.201h-11.392v-93.987h0Z"/>
      </g>
    </g>
    <g>
      <g>
        <path d="M514.192,559.773v150.314h30.516v-154.372c-9.959,1.768-20.138,3.119-30.516,4.058Z" fill="#6356a3"/>
        <path d="M566.768,551.033v159.053h30.516v-168.307c-9.854,3.575-20.056,6.647-30.516,9.252h0Z" fill="#6356a3"/>
        <path d="M478.86,561.399c.792,0-7.87,0-17.257,0v148.687h30.539v-148.915c-4.395.146-8.827.226-13.281.226h0Z" fill="#6356a3"/>
        <path d="M619.286,532.703v177.383h30.55v-194.035c-9.667,6.152-19.846,11.72-30.55,16.652h0Z" fill="#6356a3"/>
        <path d="M723.672,439.396v270.691h30.527v-390.402c-.397,46.099-11.321,86.154-30.527,119.711Z" fill="#6356a3"/>
        <path d="M671.105,500.772v209.316h30.55v-239.078c-9.165,10.867-19.391,20.79-30.55,29.764h0Z" fill="#6356a3"/>
      </g>
      <g>
        <path d="M270.63,612.961v43.185l169.075-169.083,72.855,72.855c12.977-1.108,25.63-2.845,37.907-5.254l-110.763-110.767-169.075,169.064h.001Z" fill="#6356a3"/>
        <path d="M270.63,687.301v22.784h20.406l148.623-148.617v-.071s40.881,0,39.202,0c1.341,0,2.624-.046,3.942-.059l-43.097-43.108-169.075,169.069h0Z" fill="#6356a3"/>
        <path d="M657.79,120.519c-8.896-5.486-18.365-10.425-28.277-14.866l-189.761,189.738-169.121-169.122v43.185l147.538,147.522-147.538,147.551v43.156l169.121-169.111,189.377,189.353c9.444-4.852,18.527-10.174,27.11-16.039l-194.893-194.909,196.443-196.454h.001Z" fill="#6356a3"/>
        <path d="M270.63,538.632v43.167l169.075-169.071,135.984,135.978c11.1-3.09,21.816-6.791,32.148-11.013l-168.132-168.125-169.075,169.064h0Z" fill="#6356a3"/>
        <polygon points="439.658 666.96 396.538 710.086 439.658 710.086 439.658 666.96" fill="#6356a3"/>
        <path d="M535.682,316.974l163.234-163.222c-6.973-7.422-14.576-14.238-22.692-20.487l-183.721,183.709,181.506,181.512c7.87-6.56,15.192-13.637,22.026-21.146l-160.355-160.365h.001Z" fill="#6356a3"/>
        <polygon points="365.369 710.086 439.658 635.799 439.658 592.625 322.191 710.086 365.369 710.086" fill="#6356a3"/>
        <path d="M684.363,316.974l63.863-63.853c-2.437-11.951-5.632-23.162-9.491-33.721l-97.54,97.575,95.5,95.522c4.197-10.424,7.673-21.362,10.377-32.777l-62.709-62.745h0Z" fill="#6356a3"/>
        <path d="M606.81,96.674c-10.669-3.732-21.782-7.031-33.347-9.829l-133.863,133.855-148.681-148.658h-20.288v22.872l168.97,168.971s167.21-167.21,167.21-167.21Z" fill="#6356a3"/>
        <path d="M610.029,316.974l119.437-119.408c-4.839-9.596-10.366-18.44-16.453-26.743l-146.174,146.151,143.248,143.259c6.179-8.337,11.777-17.135,16.756-26.463l-116.814-116.796h0Z" fill="#6356a3"/>
        <polygon points="270.63 273.876 270.63 360.094 313.749 316.974 270.63 273.876" fill="#6356a3"/>
        <path d="M752.343,280.151l-36.812,36.824,36.369,36.381c1.517-11.69,2.368-23.799,2.368-36.381,0,0-.689-25.146-1.925-36.824h0Z" fill="#6356a3"/>
        <path d="M481.157,73.645c-17.257-1.084-35.04-1.604-53.254-1.604h-31.47l43.167,43.161,41.557-41.559h0Z" fill="#6356a3"/>
        <polygon points="388.085 316.974 270.63 199.542 270.63 242.709 344.906 316.974 270.63 391.251 270.63 434.429 388.085 316.974" fill="#6356a3"/>
        <path d="M547.68,81.457c-12.22-2.192-24.813-4.001-37.78-5.388l-70.301,70.289-74.335-74.317h-43.179l117.514,117.496,108.08-108.08h.001Z" fill="#6356a3"/>
      </g>
    </g>
  </g>
  <path d="M730.983,105.653c0,14.761,11.544,26.317,26.305,26.317,14.529,0,26.305-11.8,26.305-26.317s-11.777-26.306-26.305-26.306c-14.761,0-26.305,11.568-26.305,26.306ZM724.032,105.653c0-18.331,14.925-33.244,33.256-33.244s33.244,14.913,33.244,33.244-14.891,33.267-33.244,33.267-33.256-14.92-33.256-33.267ZM760.844,85.999c3.475,0,7.405.121,10.028,1.685,3.486,2.174,4.22,6.553,4.22,9.841,0,6.332-2.869,9.27-9.934,10.156l-.758.087s8.36,14.108,9.188,15.52h-8.419c-.28-.531-8.408-15.619-8.408-15.619h-6.355v15.619h-7.382v-37.289h17.819ZM750.933,91.975h-.525v9.72h10.634c2.532.059,4.024-.315,4.968-1.23.862-.833,1.223-2.087,1.223-4.058,0-4.432-4.478-4.432-8.07-4.432h-8.232.001Z"/>
</svg>